<svg width="1049" height="239" viewBox="0 0 1049 239" fill="none" xmlns="http://www.w3.org/2000/svg">
<g clip-path="url(#clip0_10_8)">
<path d="M142.014 109.019C148.971 112.747 162.37 111.606 172.557 101.417C182.661 91.3144 186.482 76.5416 176.929 66.6732L176.936 66.6693C176.891 66.6277 176.729 66.4654 176.687 66.4218C176.687 66.4218 176.687 66.4257 176.679 66.4257C166.817 56.877 152.046 60.6952 141.938 70.7977C131.751 80.9871 130.61 94.3865 134.336 101.343C133.376 107.039 125.561 113.219 118.552 117.231C113.146 113.896 106.33 108.003 105.613 96.1548C106.131 91.4221 104.572 86.504 100.951 82.8819C100.618 82.5495 99.6621 81.7407 99.6621 81.7407L73.2566 61.1752L70.8512 63.5787L99.5034 90.4584L96.3955 93.5663L68.6371 65.8058L66.0883 68.3527L93.8428 96.1148L91.2186 98.739L63.464 70.9847L61.1419 73.2861L88.7302 100.876L85.5694 104.049L58.7632 75.6703L56.1314 78.3099L78.0439 105.921C78.0439 105.921 78.5656 106.455 78.7864 106.652C81.9756 109.439 85.9791 110.754 89.9411 110.642C89.9694 110.642 90.011 110.65 90.0259 110.654C100.459 110.758 106.906 117.1 110.96 122.572C101.039 132.498 70.2505 163.291 70.2505 163.291L70.258 163.298C70.2278 163.321 70.1881 163.348 70.1578 163.378C67.6507 165.883 67.6507 169.949 70.1578 172.462C70.2863 172.587 70.7699 173.067 70.8928 173.195C73.4 175.704 77.4719 175.704 79.9751 173.199C80.0054 173.169 80.0317 173.131 80.0564 173.097L80.0639 173.108C80.0639 173.108 108.656 144.515 119.618 133.557C130.051 143.986 158.969 172.897 158.969 172.897L158.977 172.889C158.999 172.916 159.011 172.953 159.049 172.991C161.512 175.451 165.533 175.451 168 172.984C170.468 170.513 170.475 166.507 168.004 164.032C167.966 163.998 167.929 163.987 167.898 163.953L167.905 163.946C167.905 163.946 135.964 132.008 127.103 123.139C131.105 116.616 136.765 109.903 142.014 109.019ZM138.621 89.9407C138.772 88.2459 139.112 86.2962 139.675 84.2329C139.973 83.2071 140.325 82.1508 140.752 81.0834C141.224 79.9991 141.719 78.9899 142.445 77.9339C143.832 75.9067 145.52 74.3307 147.202 73.0083C148.865 71.6687 150.554 70.6276 152.054 69.838C153.543 69.0331 154.877 68.5117 155.829 68.2132C156.796 67.8957 157.359 67.8541 157.359 67.8541C157.359 67.8541 156.894 68.2057 156.199 68.8555C155.496 69.5092 154.495 70.4465 153.29 71.5685C150.977 73.8246 147.682 76.753 145.347 79.9383C144.784 80.6658 144.281 81.6256 143.843 82.504C143.367 83.4016 142.943 84.3292 142.558 85.2473C141.757 87.0725 141.096 88.8407 140.525 90.3657C139.97 91.8943 139.535 93.1864 139.278 94.1049C138.999 95.0249 139.036 95.571 139.082 95.571C139.059 95.6051 138.715 95.076 138.614 94.0613C138.488 93.058 138.462 91.6315 138.621 89.9407Z" fill="url(#paint0_radial_10_8)"/>
</g>
<g clip-path="url(#clip1_10_8)">
<path d="M100.509 39.7319L94.717 33.9406L119.274 9.38309L143.832 33.9406L138.04 39.7319L119.274 20.966L100.509 39.7319Z" fill="url(#paint1_radial_10_8)"/>
</g>
<g clip-path="url(#clip2_10_8)">
<path d="M199.268 138.491L205.059 144.283L229.617 119.726L205.059 95.168L199.268 100.96L218.034 119.726L199.268 138.491Z" fill="url(#paint2_radial_10_8)"/>
</g>
<g clip-path="url(#clip3_10_8)">
<path d="M109.282 49.2216L106.198 46.1379L119.274 33.0619L132.351 46.1379L129.267 49.2216L119.274 39.2294L109.282 49.2216Z" fill="url(#paint3_radial_10_8)"/>
</g>
<g clip-path="url(#clip4_10_8)">
<path d="M189.778 129.718L192.862 132.802L205.938 119.726L192.862 106.649L189.778 109.733L199.771 119.726L189.778 129.718Z" fill="url(#paint4_radial_10_8)"/>
</g>
<g clip-path="url(#clip5_10_8)">
<path d="M39.7319 100.509L33.9406 94.717L9.38309 119.274L33.9406 143.832L39.7319 138.04L20.966 119.274L39.7319 100.509Z" fill="url(#paint5_radial_10_8)"/>
</g>
<g clip-path="url(#clip6_10_8)">
<path d="M138.491 199.268L144.283 205.059L119.725 229.617L95.168 205.059L100.959 199.268L119.725 218.034L138.491 199.268Z" fill="url(#paint6_radial_10_8)"/>
</g>
<g clip-path="url(#clip7_10_8)">
<path d="M49.2216 109.282L46.1379 106.198L33.0619 119.274L46.1379 132.351L49.2216 129.267L39.2294 119.274L49.2216 109.282Z" fill="url(#paint7_radial_10_8)"/>
</g>
<g clip-path="url(#clip8_10_8)">
<path d="M129.718 189.778L132.802 192.862L119.726 205.938L106.649 192.862L109.733 189.778L119.726 199.771L129.718 189.778Z" fill="url(#paint8_radial_10_8)"/>
</g>
<path d="M263.76 162V155.216L275.792 152.4L274.256 154.576V79.696L276.304 82.384L263.76 79.824V73.04L287.056 72.4H326.608V93.776H318.8L316.368 80.464L318.928 82H285.136L287.312 79.824V114.512L285.136 112.464H317.008V122.064H285.136L287.312 119.888V154.576L285.52 152.4L300.368 155.216V162H263.76ZM373.077 163.28C365.482 163.28 358.741 161.616 352.853 158.288C346.965 154.875 342.357 149.84 339.029 143.184C335.701 136.443 334.037 128.123 334.037 118.224C334.037 110.373 335.061 103.504 337.109 97.616C339.242 91.728 342.186 86.8213 345.941 82.896C349.696 78.9707 354.048 76.0267 358.997 74.064C364.032 72.1013 369.45 71.12 375.253 71.12C380.97 71.12 386.261 72.0587 391.125 73.936C395.989 75.8133 400.213 78.6293 403.797 82.384C407.381 86.0533 410.154 90.704 412.117 96.336C414.08 101.883 415.061 108.325 415.061 115.664C415.061 125.648 413.226 134.224 409.557 141.392C405.973 148.475 401.024 153.893 394.709 157.648C388.394 161.403 381.184 163.28 373.077 163.28ZM373.973 153.04C378.922 153.04 383.445 151.803 387.541 149.328C391.637 146.853 394.88 142.928 397.269 137.552C399.744 132.091 400.981 125.008 400.981 116.304C400.981 108.027 399.829 101.328 397.525 96.208C395.306 91.088 392.192 87.3333 388.181 84.944C384.256 82.5547 379.776 81.36 374.741 81.36C369.792 81.36 365.312 82.5973 361.301 85.072C357.29 87.4613 354.09 91.3013 351.701 96.592C349.312 101.883 348.117 108.923 348.117 117.712C348.117 125.989 349.226 132.731 351.445 137.936C353.749 143.056 356.821 146.853 360.661 149.328C364.586 151.803 369.024 153.04 373.973 153.04ZM467.952 163.28C460.357 163.28 453.616 161.616 447.728 158.288C441.84 154.875 437.232 149.84 433.904 143.184C430.576 136.443 428.912 128.123 428.912 118.224C428.912 110.373 429.936 103.504 431.984 97.616C434.117 91.728 437.061 86.8213 440.816 82.896C444.571 78.9707 448.923 76.0267 453.872 74.064C458.907 72.1013 464.325 71.12 470.128 71.12C475.845 71.12 481.136 72.0587 486 73.936C490.864 75.8133 495.088 78.6293 498.672 82.384C502.256 86.0533 505.029 90.704 506.992 96.336C508.955 101.883 509.936 108.325 509.936 115.664C509.936 125.648 508.101 134.224 504.432 141.392C500.848 148.475 495.899 153.893 489.584 157.648C483.269 161.403 476.059 163.28 467.952 163.28ZM468.848 153.04C473.797 153.04 478.32 151.803 482.416 149.328C486.512 146.853 489.755 142.928 492.144 137.552C494.619 132.091 495.856 125.008 495.856 116.304C495.856 108.027 494.704 101.328 492.4 96.208C490.181 91.088 487.067 87.3333 483.056 84.944C479.131 82.5547 474.651 81.36 469.616 81.36C464.667 81.36 460.187 82.5973 456.176 85.072C452.165 87.4613 448.965 91.3013 446.576 96.592C444.187 101.883 442.992 108.923 442.992 117.712C442.992 125.989 444.101 132.731 446.32 137.936C448.624 143.056 451.696 146.853 455.536 149.328C459.461 151.803 463.899 153.04 468.848 153.04ZM561.419 72.4C567.307 72.4 572.683 73.296 577.547 75.088C582.496 76.7947 586.763 79.44 590.347 83.024C593.931 86.608 596.704 91.1307 598.667 96.592C600.715 101.968 601.739 108.368 601.739 115.792C601.739 125.861 599.904 134.352 596.235 141.264C592.651 148.091 587.659 153.253 581.259 156.752C574.944 160.251 567.606 162 559.243 162H522.635V155.216L535.051 152.272L533.131 155.088V79.696L535.179 82.512L522.635 79.824V73.04L548.363 72.4H561.419ZM559.755 152.4C563.254 152.4 566.667 151.845 569.995 150.736C573.323 149.627 576.31 147.749 578.955 145.104C581.686 142.459 583.819 138.832 585.355 134.224C586.891 129.531 587.659 123.685 587.659 116.688C587.659 109.861 586.891 104.229 585.355 99.792C583.904 95.2693 581.899 91.728 579.339 89.168C576.864 86.5227 574.048 84.688 570.891 83.664C567.734 82.5547 564.491 82 561.163 82H544.011L546.187 79.824V154.576L544.011 152.4H559.755ZM648.308 79.184L636.276 82.256L637.812 80.208V154.576L636.276 152.4L648.308 155.216V162H614.26V155.216L626.164 152.528L624.756 154.576V80.208L626.548 82.384L614.26 79.824V73.04L648.308 72.4V79.184Z" fill="white"/>
<path d="M698.416 163.28C691.504 163.28 685.189 161.531 679.472 158.032C673.84 154.533 669.317 149.413 665.904 142.672C662.576 135.845 660.912 127.483 660.912 117.584C660.912 107.856 662.576 99.536 665.904 92.624C669.317 85.712 674.053 80.4213 680.112 76.752C686.171 72.9973 693.253 71.12 701.36 71.12C705.627 71.12 710.064 71.6747 714.672 72.784C719.365 73.808 724.272 75.4293 729.392 77.648L728.368 98.64H720.56L718 83.152L720.304 85.456C717.061 84.0907 713.819 83.0667 710.576 82.384C707.333 81.7013 704.347 81.36 701.616 81.36C696.069 81.36 691.291 82.768 687.28 85.584C683.355 88.3147 680.325 92.2827 678.192 97.488C676.059 102.608 674.992 108.795 674.992 116.048C674.992 123.984 676.144 130.683 678.448 136.144C680.837 141.52 684.037 145.616 688.048 148.432C692.144 151.163 696.709 152.528 701.744 152.528C705.499 152.528 709.424 151.717 713.52 150.096C717.616 148.475 721.627 146.043 725.552 142.8L730.672 150.48C725.552 154.832 720.219 158.075 714.672 160.208C709.125 162.256 703.707 163.28 698.416 163.28ZM775.808 79.184L763.776 82.256L765.312 80.208V154.576L763.776 152.4L775.808 155.216V162H741.76V155.216L753.664 152.528L752.256 154.576V80.208L754.048 82.384L741.76 79.824V73.04L775.808 72.4V79.184ZM827.452 163.28C819.857 163.28 813.116 161.616 807.228 158.288C801.34 154.875 796.732 149.84 793.404 143.184C790.076 136.443 788.412 128.123 788.412 118.224C788.412 110.373 789.436 103.504 791.484 97.616C793.617 91.728 796.561 86.8213 800.316 82.896C804.071 78.9707 808.423 76.0267 813.372 74.064C818.407 72.1013 823.825 71.12 829.628 71.12C835.345 71.12 840.636 72.0587 845.5 73.936C850.364 75.8133 854.588 78.6293 858.172 82.384C861.756 86.0533 864.529 90.704 866.492 96.336C868.455 101.883 869.436 108.325 869.436 115.664C869.436 125.648 867.601 134.224 863.932 141.392C860.348 148.475 855.399 153.893 849.084 157.648C842.769 161.403 835.559 163.28 827.452 163.28ZM828.348 153.04C833.297 153.04 837.82 151.803 841.916 149.328C846.012 146.853 849.255 142.928 851.644 137.552C854.119 132.091 855.356 125.008 855.356 116.304C855.356 108.027 854.204 101.328 851.9 96.208C849.681 91.088 846.567 87.3333 842.556 84.944C838.631 82.5547 834.151 81.36 829.116 81.36C824.167 81.36 819.687 82.5973 815.676 85.072C811.665 87.4613 808.465 91.3013 806.076 96.592C803.687 101.883 802.492 108.923 802.492 117.712C802.492 125.989 803.601 132.731 805.82 137.936C808.124 143.056 811.196 146.853 815.036 149.328C818.961 151.803 823.399 153.04 828.348 153.04ZM934.615 73.04L968.791 72.4V79.184L956.503 82.256L958.295 78.928V127.696C958.295 131.28 957.954 134.821 957.271 138.32C956.674 141.733 955.607 144.933 954.071 147.92C952.62 150.907 950.572 153.595 947.927 155.984C945.367 158.288 942.082 160.08 938.071 161.36C934.146 162.64 929.367 163.28 923.735 163.28C916.994 163.28 911.49 162.469 907.223 160.848C902.956 159.141 899.628 156.923 897.239 154.192C894.935 151.461 893.271 148.56 892.247 145.488C891.308 142.416 890.711 139.472 890.455 136.656C890.199 133.755 890.071 131.28 890.071 129.232V79.056L891.863 82.256L879.575 79.824V73.04L913.751 72.4V79.184L901.719 82.256L903.255 79.056V129.232C903.255 131.365 903.34 133.584 903.511 135.888C903.682 138.107 904.108 140.283 904.791 142.416C905.474 144.464 906.54 146.299 907.991 147.92C909.527 149.456 911.575 150.736 914.135 151.76C916.695 152.699 919.938 153.168 923.863 153.168C927.874 153.168 931.202 152.656 933.847 151.632C936.492 150.608 938.583 149.243 940.119 147.536C941.655 145.829 942.764 143.909 943.447 141.776C944.215 139.557 944.684 137.253 944.855 134.864C945.026 132.475 945.111 130.085 945.111 127.696V78.928L946.519 82.128L934.615 79.824V73.04ZM993.888 94.416C993.888 97.4027 994.741 99.8773 996.448 101.84C998.155 103.717 1000.42 105.296 1003.23 106.576C1006.05 107.856 1009.12 109.008 1012.45 110.032C1015.86 111.056 1019.23 112.208 1022.56 113.488C1025.97 114.768 1029.09 116.347 1031.9 118.224C1034.72 120.101 1036.98 122.533 1038.69 125.52C1040.39 128.507 1041.25 132.261 1041.25 136.784C1041.25 142.843 1039.67 147.835 1036.51 151.76C1033.44 155.685 1029.3 158.587 1024.1 160.464C1018.98 162.341 1013.3 163.28 1007.07 163.28C1002.72 163.28 998.283 162.853 993.76 162C989.237 161.061 984.757 159.696 980.32 157.904L981.088 135.888H988.768L991.2 151.888L989.792 149.456C992.608 150.736 995.552 151.717 998.624 152.4C1001.78 153.083 1004.85 153.424 1007.84 153.424C1011.51 153.424 1014.88 152.869 1017.95 151.76C1021.11 150.651 1023.63 148.987 1025.5 146.768C1027.38 144.549 1028.32 141.776 1028.32 138.448C1028.32 135.291 1027.47 132.731 1025.76 130.768C1024.05 128.805 1021.79 127.184 1018.98 125.904C1016.16 124.624 1013.09 123.472 1009.76 122.448C1006.43 121.424 1003.06 120.315 999.648 119.12C996.32 117.925 993.248 116.432 990.432 114.64C987.616 112.763 985.355 110.373 983.648 107.472C981.941 104.485 981.088 100.773 981.088 96.336C981.088 90.6187 982.453 85.9253 985.184 82.256C988 78.5013 991.755 75.728 996.448 73.936C1001.23 72.0587 1006.56 71.12 1012.45 71.12C1016.63 71.12 1020.94 71.5893 1025.38 72.528C1029.9 73.3813 1034.34 74.704 1038.69 76.496L1037.54 97.36H1029.73L1027.55 82.512L1029.22 84.176C1026.83 83.152 1024.22 82.384 1021.41 81.872C1018.59 81.2747 1015.78 80.976 1012.96 80.976C1009.63 80.976 1006.52 81.4453 1003.62 82.384C1000.71 83.2373 998.368 84.6453 996.576 86.608C994.784 88.5707 993.888 91.1733 993.888 94.416Z" fill="#DAB94E"/>
<defs>
<radialGradient id="paint0_radial_10_8" cx="0" cy="0" r="1" gradientUnits="userSpaceOnUse" gradientTransform="translate(119.279 118.004) rotate(90) scale(57.0737 63.1477)">
<stop stop-color="#F7EBC4"/>
<stop offset="1" stop-color="#DAB94E"/>
</radialGradient>
<radialGradient id="paint1_radial_10_8" cx="0" cy="0" r="1" gradientUnits="userSpaceOnUse" gradientTransform="translate(119.274 24.5575) scale(24.5575 15.1744)">
<stop stop-color="#F7EBC4"/>
<stop offset="1" stop-color="#DAB94E"/>
</radialGradient>
<radialGradient id="paint2_radial_10_8" cx="0" cy="0" r="1" gradientUnits="userSpaceOnUse" gradientTransform="translate(214.443 119.726) rotate(-90) scale(24.5575 15.1744)">
<stop stop-color="#F7EBC4"/>
<stop offset="1" stop-color="#DAB94E"/>
</radialGradient>
<radialGradient id="paint3_radial_10_8" cx="0" cy="0" r="1" gradientUnits="userSpaceOnUse" gradientTransform="translate(119.274 41.1417) scale(13.0761 8.07989)">
<stop stop-color="#F7EBC4"/>
<stop offset="1" stop-color="#DAB94E"/>
</radialGradient>
<radialGradient id="paint4_radial_10_8" cx="0" cy="0" r="1" gradientUnits="userSpaceOnUse" gradientTransform="translate(197.858 119.726) rotate(-90) scale(13.0761 8.07989)">
<stop stop-color="#F7EBC4"/>
<stop offset="1" stop-color="#DAB94E"/>
</radialGradient>
<radialGradient id="paint5_radial_10_8" cx="0" cy="0" r="1" gradientUnits="userSpaceOnUse" gradientTransform="translate(24.5575 119.274) rotate(90) scale(24.5575 15.1744)">
<stop stop-color="#F7EBC4"/>
<stop offset="1" stop-color="#DAB94E"/>
</radialGradient>
<radialGradient id="paint6_radial_10_8" cx="0" cy="0" r="1" gradientUnits="userSpaceOnUse" gradientTransform="translate(119.725 214.442) rotate(180) scale(24.5575 15.1744)">
<stop stop-color="#F7EBC4"/>
<stop offset="1" stop-color="#DAB94E"/>
</radialGradient>
<radialGradient id="paint7_radial_10_8" cx="0" cy="0" r="1" gradientUnits="userSpaceOnUse" gradientTransform="translate(41.1417 119.274) rotate(90) scale(13.0761 8.07989)">
<stop stop-color="#F7EBC4"/>
<stop offset="1" stop-color="#DAB94E"/>
</radialGradient>
<radialGradient id="paint8_radial_10_8" cx="0" cy="0" r="1" gradientUnits="userSpaceOnUse" gradientTransform="translate(119.726 197.858) rotate(180) scale(13.0761 8.07989)">
<stop stop-color="#F7EBC4"/>
<stop offset="1" stop-color="#DAB94E"/>
</radialGradient>
<clipPath id="clip0_10_8">
<rect width="126.296" height="126.296" fill="white" transform="translate(56.1314 54.8557)"/>
</clipPath>
<clipPath id="clip1_10_8">
<rect width="49.115" height="49.115" fill="white" transform="matrix(2.18557e-08 1 1 -2.18557e-08 94.717 0)"/>
</clipPath>
<clipPath id="clip2_10_8">
<rect width="49.115" height="49.115" fill="white" transform="translate(239 144.283) rotate(180)"/>
</clipPath>
<clipPath id="clip3_10_8">
<rect width="26.1521" height="26.1521" fill="white" transform="matrix(2.18557e-08 1 1 -2.18557e-08 106.198 28.0657)"/>
</clipPath>
<clipPath id="clip4_10_8">
<rect width="26.1521" height="26.1521" fill="white" transform="translate(210.934 132.802) rotate(180)"/>
</clipPath>
<clipPath id="clip5_10_8">
<rect width="49.115" height="49.115" fill="white" transform="translate(0 94.717)"/>
</clipPath>
<clipPath id="clip6_10_8">
<rect width="49.115" height="49.115" fill="white" transform="matrix(-2.18557e-08 -1 -1 2.18557e-08 144.283 239)"/>
</clipPath>
<clipPath id="clip7_10_8">
<rect width="26.1521" height="26.1521" fill="white" transform="translate(28.0657 106.198)"/>
</clipPath>
<clipPath id="clip8_10_8">
<rect width="26.1521" height="26.1521" fill="white" transform="matrix(-2.18557e-08 -1 -1 2.18557e-08 132.802 210.934)"/>
</clipPath>
</defs>
</svg>
